<svg width="18" height="18" viewBox="0 0 18 18" fill="none" xmlns="http://www.w3.org/2000/svg">
<circle cx="9" cy="9" r="9" fill="#FF4747"/>
<path d="M6.17784 13.7999C6.08136 13.7999 6.00096 13.7678 5.93663 13.7035C5.87231 13.6392 5.84551 13.5588 5.85623 13.4624L6.14568 11.5178H4.55372C4.44652 11.5178 4.36076 11.4856 4.29643 11.4213C4.23211 11.357 4.19995 11.2713 4.19995 11.1642V10.6178C4.19995 10.5106 4.23211 10.4249 4.29643 10.3606C4.36076 10.2963 4.44652 10.2642 4.55372 10.2642H6.33864L6.75674 7.43562H4.97181C4.86461 7.43562 4.77885 7.40347 4.71452 7.33919C4.6502 7.2749 4.61804 7.18919 4.61804 7.08205V6.53562C4.61804 6.42847 4.6502 6.34276 4.71452 6.27847C4.77885 6.21419 4.86461 6.18205 4.97181 6.18205H6.9497L7.23915 4.2374C7.26059 4.14097 7.29811 4.06062 7.35171 3.99633C7.41603 3.93205 7.49643 3.8999 7.59292 3.8999H8.18789C8.28437 3.8999 8.36478 3.93205 8.4291 3.99633C8.49342 4.06062 8.52022 4.14097 8.5095 4.2374L8.22005 6.18205H10.6L10.8894 4.2374C10.9108 4.14097 10.9484 4.06062 11.002 3.99633C11.0663 3.93205 11.1467 3.8999 11.2432 3.8999H11.8381C11.9346 3.8999 12.015 3.93205 12.0793 3.99633C12.1437 4.06062 12.1705 4.14097 12.1598 4.2374L11.8703 6.18205H13.4301C13.5373 6.18205 13.6231 6.21419 13.6874 6.27847C13.7624 6.34276 13.8 6.42847 13.8 6.53562V7.08205C13.8 7.18919 13.7624 7.2749 13.6874 7.33919C13.6231 7.40347 13.5373 7.43562 13.4301 7.43562H11.6934L11.2753 10.2642H13.012C13.1192 10.2642 13.205 10.2963 13.2693 10.3606C13.3443 10.4249 13.3819 10.5106 13.3819 10.6178V11.1642C13.3819 11.2713 13.3443 11.357 13.2693 11.4213C13.205 11.4856 13.1192 11.5178 13.012 11.5178H11.0824L10.7929 13.4624C10.7715 13.5588 10.7286 13.6392 10.6643 13.7035C10.6 13.7678 10.5195 13.7999 10.4231 13.7999H9.82809C9.73161 13.7999 9.65121 13.7678 9.58689 13.7035C9.52256 13.6392 9.49576 13.5588 9.50648 13.4624L9.79593 11.5178H7.43211L7.14266 13.4624C7.12122 13.5588 7.07834 13.6392 7.01402 13.7035C6.9497 13.7678 6.8693 13.7999 6.77282 13.7999H6.17784ZM9.9889 10.2642L10.407 7.43562H8.04317L7.62508 10.2642H9.9889Z" fill="white"/>
</svg>
